<svg xmlns="http://www.w3.org/2000/svg" xmlns:xlink="http://www.w3.org/1999/xlink" width="70" height="30" viewBox="0 0 220 90" version="1.1" style=""><rect id="backgroundrect" width="10%" height="10%" x="0" y="0" fill="none" stroke="none" style="" class=""/>
<defs>
<clipPath id="clip1">
  <path d="M 592 317 L 610.828125 317 L 610.828125 336 L 592 336 Z M 592 317 " id="svg_1"/>
</clipPath>
<clipPath id="clip2">
  <path d="M 0 263 L 223 263 L 223 359.980469 L 0 359.980469 Z M 0 263 " id="svg_2"/>
</clipPath>
</defs>

<g class="currentLayer" style=""><title>Layer 1</title><g id="surface1" class="selected" transform="">
<path style=" stroke:none;fill-rule:nonzero;fill:rgb(13.699341%,12.199402%,12.5%);fill-opacity:1;" d="M 269.113281 70.363281 C 269.148438 70.433594 269.1875 70.507813 269.1875 70.578125 C 269.1875 71.011719 266.125 72.269531 265.226563 72.703125 L 264.9375 72.773438 C 264.828125 72.773438 264.722656 72.738281 264.648438 72.628906 L 256.910156 62.621094 L 250.933594 62.621094 L 250.933594 71.65625 C 250.933594 71.839844 250.753906 71.980469 250.539063 71.980469 L 246.363281 71.980469 C 246.144531 71.980469 245.964844 71.839844 245.964844 71.65625 L 245.964844 47.214844 C 245.964844 47.035156 246.144531 46.890625 246.363281 46.890625 L 259.933594 46.890625 C 264.792969 46.890625 268.46875 49.230469 268.46875 54.738281 C 268.46875 59.058594 266.160156 61.46875 262.203125 62.046875 Z M 250.933594 50.777344 L 250.933594 58.769531 L 259.71875 58.769531 C 261.984375 58.769531 262.992188 58.015625 262.992188 54.664063 C 262.992188 51.535156 262.058594 50.777344 259.789063 50.777344 L 250.933594 50.777344 " id="svg_3"/>
<path style=" stroke:none;fill-rule:nonzero;fill:rgb(13.699341%,12.199402%,12.5%);fill-opacity:1;" d="M 294.046875 70.828125 C 294.152344 71.011719 294.082031 71.191406 293.898438 71.296875 L 290.230469 72.667969 C 290.050781 72.738281 289.796875 72.667969 289.726563 72.523438 L 288.285156 69.964844 C 287.097656 71.117188 284.179688 72.523438 281.15625 72.523438 C 275.648438 72.523438 273.488281 70.613281 273.488281 63.847656 L 273.488281 53.980469 C 273.488281 53.800781 273.632813 53.65625 273.847656 53.65625 L 277.808594 53.65625 C 278.023438 53.65625 278.203125 53.800781 278.203125 53.980469 L 278.203125 63.414063 C 278.203125 67.984375 278.851563 68.453125 282.992188 68.453125 C 284.648438 68.453125 286.734375 68.238281 288.214844 67.589844 L 288.214844 53.980469 C 288.214844 53.800781 288.429688 53.65625 288.644531 53.65625 L 292.53125 53.65625 C 292.75 53.65625 292.929688 53.800781 292.929688 53.980469 L 292.929688 68.777344 L 294.046875 70.828125 " id="svg_4"/>
<path style=" stroke:none;fill-rule:nonzero;fill:rgb(13.699341%,12.199402%,12.5%);fill-opacity:1;" d="M 298.730469 71.335938 L 299.308594 68.238281 C 299.34375 68.058594 299.632813 67.984375 299.738281 68.023438 C 301.503906 68.488281 304.453125 68.921875 306.902344 68.921875 C 309.964844 68.921875 310.753906 68.488281 310.753906 66.582031 C 310.753906 65.070313 310 64.746094 306.183594 64.421875 C 300.675781 63.988281 298.40625 62.515625 298.40625 58.984375 C 298.40625 54.847656 301.359375 53.117188 307.621094 53.117188 C 309.78125 53.117188 312.445313 53.371094 314.679688 53.800781 C 314.894531 53.875 314.96875 54.054688 314.894531 54.269531 L 314.28125 57.328125 C 314.246094 57.511719 313.996094 57.582031 313.851563 57.546875 C 312.050781 57.007813 309.097656 56.753906 307.082031 56.753906 C 304.09375 56.753906 303.375 57.148438 303.375 58.914063 C 303.375 60.355469 304.132813 60.640625 307.984375 60.964844 C 313.996094 61.46875 315.722656 63.125 315.722656 66.4375 C 315.722656 70.722656 312.878906 72.484375 306.363281 72.484375 C 304.058594 72.484375 301.285156 72.269531 298.945313 71.804688 C 298.730469 71.765625 298.621094 71.550781 298.730469 71.335938 " id="svg_5"/>
<path style=" stroke:none;fill-rule:nonzero;fill:rgb(13.699341%,12.199402%,12.5%);fill-opacity:1;" d="M 320.203125 71.335938 L 320.777344 68.238281 C 320.816406 68.058594 321.105469 67.984375 321.210938 68.023438 C 322.976563 68.488281 325.929688 68.921875 328.375 68.921875 C 331.4375 68.921875 332.226563 68.488281 332.226563 66.582031 C 332.226563 65.070313 331.472656 64.746094 327.65625 64.421875 C 322.148438 63.988281 319.878906 62.515625 319.878906 58.984375 C 319.878906 54.847656 322.832031 53.117188 329.097656 53.117188 C 331.257813 53.117188 333.921875 53.371094 336.152344 53.800781 C 336.367188 53.875 336.4375 54.054688 336.367188 54.269531 L 335.757813 57.328125 C 335.71875 57.511719 335.46875 57.582031 335.324219 57.546875 C 333.523438 57.007813 330.570313 56.753906 328.554688 56.753906 C 325.566406 56.753906 324.847656 57.148438 324.847656 58.914063 C 324.847656 60.355469 325.605469 60.640625 329.457031 60.964844 C 335.46875 61.46875 337.195313 63.125 337.195313 66.4375 C 337.195313 70.722656 334.351563 72.484375 327.835938 72.484375 C 325.53125 72.484375 322.761719 72.269531 320.421875 71.804688 C 320.203125 71.765625 320.097656 71.550781 320.203125 71.335938 " id="svg_6"/>
<path style=" stroke:none;fill-rule:nonzero;fill:rgb(13.699341%,12.199402%,12.5%);fill-opacity:1;" d="M 347.363281 48.257813 C 347.363281 50.347656 347.039063 50.597656 344.808594 50.597656 C 342.503906 50.597656 342.214844 50.347656 342.214844 48.257813 C 342.214844 46.386719 342.503906 46.171875 344.808594 46.171875 C 347.039063 46.171875 347.363281 46.386719 347.363281 48.257813 Z M 347.144531 71.65625 C 347.144531 71.839844 346.96875 71.980469 346.75 71.980469 L 342.789063 71.980469 C 342.574219 71.980469 342.394531 71.839844 342.394531 71.65625 L 342.394531 53.980469 C 342.394531 53.800781 342.574219 53.65625 342.789063 53.65625 L 346.75 53.65625 C 346.96875 53.65625 347.144531 53.800781 347.144531 53.980469 L 347.144531 71.65625 " id="svg_7"/>
<path style=" stroke:none;fill-rule:nonzero;fill:rgb(13.699341%,12.199402%,12.5%);fill-opacity:1;" d="M 371.730469 60.679688 L 371.730469 68.742188 L 372.847656 70.828125 C 372.953125 70.976563 372.882813 71.191406 372.703125 71.261719 L 369.03125 72.628906 C 368.851563 72.738281 368.597656 72.667969 368.527344 72.523438 L 367.085938 69.929688 C 366.113281 71.011719 362.980469 72.484375 360.425781 72.484375 C 354.558594 72.484375 352.363281 70.828125 352.363281 66.1875 C 352.363281 61.613281 354.558594 60.066406 360.425781 60.066406 C 362.980469 60.066406 366.042969 61.363281 367.015625 62.441406 L 367.015625 60.785156 C 367.015625 57.4375 365.824219 56.71875 361.363281 56.71875 C 359.347656 56.71875 356.71875 56.96875 354.917969 57.402344 C 354.8125 57.4375 354.558594 57.367188 354.484375 57.1875 L 354.019531 54.160156 C 353.910156 53.945313 354.019531 53.765625 354.234375 53.695313 C 356.574219 53.335938 358.84375 53.117188 361.792969 53.117188 C 368.09375 53.117188 371.730469 54.738281 371.730469 60.679688 Z M 357.4375 66.113281 C 357.4375 68.273438 358.121094 68.707031 361.722656 68.707031 C 363.378906 68.707031 365.539063 68.382813 367.015625 67.734375 L 367.015625 64.386719 C 365.539063 63.738281 363.378906 63.449219 361.722656 63.449219 C 358.085938 63.449219 357.4375 63.882813 357.4375 66.113281 " id="svg_8"/>
<path style=" stroke:none;fill-rule:nonzero;fill:rgb(13.699341%,12.199402%,12.5%);fill-opacity:1;" d="M 397.234375 71.65625 C 397.234375 71.839844 397.054688 71.980469 396.839844 71.980469 L 392.878906 71.980469 C 392.664063 71.980469 392.519531 71.839844 392.519531 71.65625 L 392.519531 62.226563 C 392.519531 57.652344 391.835938 57.1875 387.695313 57.1875 C 386.074219 57.1875 384.09375 57.402344 382.511719 58.050781 L 382.511719 71.65625 C 382.511719 71.839844 382.332031 71.980469 382.113281 71.980469 L 378.15625 71.980469 C 377.9375 71.980469 377.796875 71.839844 377.796875 71.65625 L 377.796875 53.980469 C 377.796875 53.800781 377.9375 53.65625 378.15625 53.65625 L 382.113281 53.65625 C 382.332031 53.65625 382.511719 53.800781 382.511719 53.980469 L 382.511719 55.675781 C 384.09375 54.269531 386.976563 53.152344 390.539063 53.152344 C 395.398438 53.335938 397.234375 55.457031 397.234375 61.792969 L 397.234375 71.65625 " id="svg_9"/>
<path style=" stroke:none;fill-rule:nonzero;fill:rgb(13.699341%,12.199402%,12.5%);fill-opacity:1;" d="M 438.09375 70.363281 C 438.128906 70.433594 438.164063 70.507813 438.164063 70.578125 C 438.164063 71.011719 435.105469 72.269531 434.207031 72.703125 L 433.917969 72.773438 C 433.808594 72.773438 433.703125 72.738281 433.628906 72.628906 L 425.890625 62.621094 L 419.914063 62.621094 L 419.914063 71.65625 C 419.914063 71.839844 419.734375 71.980469 419.519531 71.980469 L 415.34375 71.980469 C 415.125 71.980469 414.945313 71.839844 414.945313 71.65625 L 414.945313 47.214844 C 414.945313 47.035156 415.125 46.890625 415.34375 46.890625 L 428.914063 46.890625 C 433.773438 46.890625 437.445313 49.230469 437.445313 54.738281 C 437.445313 59.058594 435.140625 61.46875 431.183594 62.046875 Z M 419.914063 50.777344 L 419.914063 58.769531 L 428.699219 58.769531 C 430.964844 58.769531 431.972656 58.015625 431.972656 54.664063 C 431.972656 51.535156 431.039063 50.777344 428.769531 50.777344 L 419.914063 50.777344 " id="svg_10"/>
<path style=" stroke:none;fill-rule:nonzero;fill:rgb(13.699341%,12.199402%,12.5%);fill-opacity:1;" d="M 461.585938 60.679688 L 461.585938 68.742188 L 462.699219 70.828125 C 462.808594 70.976563 462.734375 71.191406 462.554688 71.261719 L 458.882813 72.628906 C 458.703125 72.738281 458.453125 72.667969 458.378906 72.523438 L 456.9375 69.929688 C 455.96875 71.011719 452.835938 72.484375 450.277344 72.484375 C 444.410156 72.484375 442.214844 70.828125 442.214844 66.1875 C 442.214844 61.613281 444.410156 60.066406 450.277344 60.066406 C 452.835938 60.066406 455.894531 61.363281 456.867188 62.441406 L 456.867188 60.785156 C 456.867188 57.4375 455.679688 56.71875 451.214844 56.71875 C 449.199219 56.71875 446.570313 56.96875 444.769531 57.402344 C 444.664063 57.4375 444.410156 57.367188 444.339844 57.1875 L 443.871094 54.160156 C 443.765625 53.945313 443.871094 53.765625 444.089844 53.695313 C 446.429688 53.335938 448.695313 53.117188 451.648438 53.117188 C 457.949219 53.117188 461.585938 54.738281 461.585938 60.679688 Z M 447.292969 66.113281 C 447.292969 68.273438 447.976563 68.707031 451.574219 68.707031 C 453.230469 68.707031 455.390625 68.382813 456.867188 67.734375 L 456.867188 64.386719 C 455.390625 63.738281 453.230469 63.449219 451.574219 63.449219 C 447.9375 63.449219 447.292969 63.882813 447.292969 66.113281 " id="svg_11"/>
<path style=" stroke:none;fill-rule:nonzero;fill:rgb(13.699341%,12.199402%,12.5%);fill-opacity:1;" d="M 472.675781 48.257813 C 472.675781 50.347656 472.351563 50.597656 470.117188 50.597656 C 467.8125 50.597656 467.527344 50.347656 467.527344 48.257813 C 467.527344 46.386719 467.8125 46.171875 470.117188 46.171875 C 472.351563 46.171875 472.675781 46.386719 472.675781 48.257813 Z M 472.460938 71.65625 C 472.460938 71.839844 472.277344 71.980469 472.0625 71.980469 L 468.101563 71.980469 C 467.886719 71.980469 467.707031 71.839844 467.707031 71.65625 L 467.707031 53.980469 C 467.707031 53.800781 467.886719 53.65625 468.101563 53.65625 L 472.0625 53.65625 C 472.277344 53.65625 472.460938 53.800781 472.460938 53.980469 L 472.460938 71.65625 " id="svg_12"/>
<path style=" stroke:none;fill-rule:nonzero;fill:rgb(13.699341%,12.199402%,12.5%);fill-opacity:1;" d="M 478.597656 46.457031 C 478.597656 46.277344 478.777344 46.132813 478.992188 46.132813 L 482.953125 46.132813 C 483.167969 46.132813 483.347656 46.277344 483.347656 46.457031 L 483.347656 68.382813 L 484.679688 70.828125 C 484.789063 70.976563 484.71875 71.191406 484.535156 71.261719 L 480.757813 72.628906 C 480.613281 72.738281 480.324219 72.667969 480.253906 72.523438 L 479.101563 70.21875 C 478.667969 69.425781 478.597656 69.03125 478.597656 68.273438 L 478.597656 46.457031 " id="svg_13"/>
<path style=" stroke:none;fill-rule:nonzero;fill:rgb(13.699341%,12.199402%,12.5%);fill-opacity:1;" d="M 516.953125 53.476563 C 516.992188 53.371094 517.171875 53.226563 517.386719 53.226563 L 517.460938 53.226563 L 521.671875 54.125 C 521.851563 54.160156 521.925781 54.269531 521.925781 54.378906 L 521.925781 54.484375 L 515.984375 71.65625 C 515.910156 71.839844 515.730469 71.980469 515.515625 71.980469 L 509.285156 71.980469 C 509.070313 71.980469 508.890625 71.839844 508.855469 71.65625 L 504.859375 58.339844 L 500.898438 71.65625 C 500.828125 71.839844 500.648438 71.980469 500.433594 71.980469 L 494.273438 71.980469 C 494.058594 71.980469 493.84375 71.839844 493.808594 71.65625 L 487.796875 54.523438 C 487.796875 54.484375 487.757813 54.449219 487.757813 54.414063 C 487.757813 54.269531 487.902344 54.160156 488.082031 54.125 L 492.296875 53.226563 L 492.367188 53.226563 C 492.546875 53.226563 492.765625 53.335938 492.800781 53.476563 L 497.550781 68.671875 L 501.941406 53.980469 C 501.980469 53.800781 502.160156 53.65625 502.375 53.65625 L 507.378906 53.65625 C 507.597656 53.65625 507.8125 53.800781 507.8125 53.980469 L 512.238281 68.671875 L 516.953125 53.476563 " id="svg_14"/>
<path style=" stroke:none;fill-rule:nonzero;fill:rgb(13.699341%,12.199402%,12.5%);fill-opacity:1;" d="M 544.269531 60.679688 L 544.269531 68.742188 L 545.382813 70.828125 C 545.492188 70.976563 545.421875 71.191406 545.238281 71.261719 L 541.566406 72.628906 C 541.386719 72.738281 541.136719 72.667969 541.0625 72.523438 L 539.621094 69.929688 C 538.652344 71.011719 535.519531 72.484375 532.964844 72.484375 C 527.097656 72.484375 524.898438 70.828125 524.898438 66.1875 C 524.898438 61.613281 527.097656 60.066406 532.964844 60.066406 C 535.519531 60.066406 538.578125 61.363281 539.550781 62.441406 L 539.550781 60.785156 C 539.550781 57.4375 538.363281 56.71875 533.898438 56.71875 C 531.882813 56.71875 529.253906 56.96875 527.453125 57.402344 C 527.347656 57.4375 527.097656 57.367188 527.023438 57.1875 L 526.554688 54.160156 C 526.445313 53.945313 526.554688 53.765625 526.769531 53.695313 C 529.109375 53.335938 531.378906 53.117188 534.332031 53.117188 C 540.632813 53.117188 544.269531 54.738281 544.269531 60.679688 Z M 529.976563 66.113281 C 529.976563 68.273438 530.660156 68.707031 534.261719 68.707031 C 535.914063 68.707031 538.074219 68.382813 539.550781 67.734375 L 539.550781 64.386719 C 538.074219 63.738281 535.914063 63.449219 534.261719 63.449219 C 530.621094 63.449219 529.976563 63.882813 529.976563 66.113281 " id="svg_15"/>
<path style=" stroke:none;fill-rule:nonzero;fill:rgb(13.699341%,12.199402%,12.5%);fill-opacity:1;" d="M 561.046875 73.816406 C 559.390625 77.960938 556.726563 79.324219 552.441406 79.324219 C 552.261719 79.324219 552.046875 79.253906 552.011719 79.039063 L 551.472656 75.90625 C 551.398438 75.691406 551.542969 75.511719 551.722656 75.511719 C 554.53125 75.511719 555.574219 74.972656 556.726563 71.980469 L 555.503906 71.980469 C 555.070313 71.980469 554.566406 71.804688 554.421875 71.335938 L 547.582031 54.523438 C 547.476563 54.34375 547.617188 54.160156 547.835938 54.125 L 552.117188 53.226563 C 552.335938 53.191406 552.585938 53.296875 552.621094 53.476563 L 558.203125 68.886719 L 563.855469 53.476563 C 563.890625 53.335938 564.179688 53.191406 564.359375 53.226563 L 568.605469 54.125 C 568.820313 54.160156 568.96875 54.308594 568.859375 54.484375 L 561.046875 73.816406 " id="svg_16"/>
<path style=" stroke:none;fill-rule:nonzero;fill:rgb(13.699341%,12.199402%,12.5%);fill-opacity:1;" d="M 572.324219 71.335938 L 572.898438 68.238281 C 572.9375 68.058594 573.226563 67.984375 573.332031 68.023438 C 575.097656 68.488281 578.050781 68.921875 580.496094 68.921875 C 583.558594 68.921875 584.347656 68.488281 584.347656 66.582031 C 584.347656 65.070313 583.59375 64.746094 579.777344 64.421875 C 574.269531 63.988281 572 62.515625 572 58.984375 C 572 54.847656 574.953125 53.117188 581.21875 53.117188 C 583.378906 53.117188 586.039063 53.371094 588.273438 53.800781 C 588.488281 53.875 588.5625 54.054688 588.488281 54.269531 L 587.878906 57.328125 C 587.839844 57.511719 587.589844 57.582031 587.445313 57.546875 C 585.644531 57.007813 582.691406 56.753906 580.675781 56.753906 C 577.6875 56.753906 576.96875 57.148438 576.96875 58.914063 C 576.96875 60.355469 577.726563 60.640625 581.578125 60.964844 C 587.589844 61.46875 589.316406 63.125 589.316406 66.4375 C 589.316406 70.722656 586.472656 72.484375 579.957031 72.484375 C 577.652344 72.484375 574.882813 72.269531 572.539063 71.804688 C 572.324219 71.765625 572.21875 71.550781 572.324219 71.335938 " id="svg_17"/>
<path style=" stroke:none;fill-rule:nonzero;fill:rgb(85.881042%,8.627319%,22.744751%);fill-opacity:1;" d="M 150.003906 24.003906 L 114 72.003906 L 84 72.003906 L 120 24.003906 Z M 173.941406 60.003906 C 168.929688 60.003906 166.183594 54.324219 169.140625 50.394531 L 189.003906 24.003906 L 159.003906 24.003906 L 145.457031 41.988281 C 142.203125 46.304688 142.21875 49.644531 145.457031 53.984375 L 154.398438 65.90625 C 158.953125 71.976563 163.449219 72.003906 171.003906 72.003906 L 192.003906 72.003906 C 209.996094 72 222.003906 59.996094 222.003906 42.003906 L 222.003906 30.003906 C 222.003906 12.007813 210 0.00390625 192.003906 0.00390625 L 165.003906 0.00390625 C 163.753906 0.00390625 162.003906 0.00390625 160.503906 1.503906 C 159.003906 3.003906 159.003906 4.753906 159.003906 6.003906 L 159.003906 12.003906 L 192.003906 12.003906 C 195.753906 12.003906 198.003906 14.253906 198.003906 18.003906 L 198.003906 54.003906 C 198.003906 57.753906 195.753906 60.003906 192.003906 60.003906 Z M 60.058594 36.003906 C 65.074219 36.003906 67.820313 41.679688 64.863281 45.609375 L 45 72.003906 L 75 72.003906 L 88.546875 54.019531 C 91.796875 49.699219 91.785156 46.359375 88.546875 42.023438 L 79.605469 30.101563 C 75.050781 24.027344 70.554688 24.003906 63 24.003906 L 6 24.003906 C 4.75 24.003906 3 24.003906 1.5 25.503906 C 0 27.003906 0 28.753906 0 30.003906 L 0 36.003906 L 12 36.003906 L 12 96.003906 L 36 96.003906 L 36 36.003906 L 60.058594 36.003906 " id="svg_18"/>
<path style=" stroke:none;fill-rule:nonzero;fill:rgb(13.699341%,12.199402%,12.5%);fill-opacity:1;" d="M 250.933594 299.660156 C 250.933594 299.839844 250.753906 299.984375 250.539063 299.984375 L 246.363281 299.984375 C 246.144531 299.984375 245.964844 299.839844 245.964844 299.660156 L 245.964844 275.214844 C 245.964844 275.035156 246.144531 274.890625 246.363281 274.890625 L 259.933594 274.890625 C 264.792969 274.890625 268.46875 277.230469 268.46875 282.738281 C 268.46875 288.210938 265.117188 290.621094 259.683594 290.621094 L 250.933594 290.621094 Z M 250.933594 278.777344 L 250.933594 286.769531 L 259.71875 286.769531 C 261.984375 286.769531 262.992188 285.871094 262.992188 282.667969 C 262.992188 279.605469 262.058594 278.777344 259.789063 278.777344 L 250.933594 278.777344 " id="svg_19"/>
<path style=" stroke:none;fill-rule:nonzero;fill:rgb(13.699341%,12.199402%,12.5%);fill-opacity:1;" d="M 272.007813 290.730469 C 272.007813 283.242188 274.816406 281.117188 282.410156 281.117188 C 290.078125 281.117188 292.851563 283.242188 292.851563 290.730469 C 292.851563 298.253906 290.152344 300.488281 282.410156 300.488281 C 274.742188 300.488281 272.007813 298.253906 272.007813 290.730469 Z M 277.15625 290.800781 C 277.15625 296.167969 277.730469 296.632813 282.410156 296.632813 C 287.128906 296.632813 287.703125 296.167969 287.703125 290.800781 C 287.703125 285.546875 287.128906 284.96875 282.410156 284.96875 C 277.730469 284.96875 277.15625 285.546875 277.15625 290.800781 " id="svg_20"/>
<path style=" stroke:none;fill-rule:nonzero;fill:rgb(13.699341%,12.199402%,12.5%);fill-opacity:1;" d="M 313.578125 295.84375 C 313.722656 295.808594 313.976563 295.878906 314.011719 296.058594 L 314.515625 299.441406 C 314.585938 299.660156 314.515625 299.875 314.296875 299.910156 C 312.210938 300.308594 309.796875 300.488281 307.566406 300.488281 C 300.1875 300.488281 297.882813 298.21875 297.882813 290.765625 C 297.882813 283.351563 300.1875 281.117188 307.566406 281.117188 C 309.796875 281.117188 312.210938 281.335938 314.296875 281.695313 C 314.515625 281.765625 314.585938 281.945313 314.515625 282.164063 L 314.011719 285.546875 C 313.976563 285.726563 313.722656 285.796875 313.578125 285.761719 C 311.921875 285.332031 309.691406 285.113281 307.746094 285.113281 C 303.75 285.113281 303.03125 285.65625 303.03125 290.800781 C 303.03125 296.09375 303.929688 296.527344 307.925781 296.527344 C 309.871094 296.527344 311.921875 296.273438 313.578125 295.84375 " id="svg_21"/>
<path style=" stroke:none;fill-rule:nonzero;fill:rgb(13.699341%,12.199402%,12.5%);fill-opacity:1;" d="M 334.167969 295.84375 C 334.3125 295.808594 334.566406 295.878906 334.601563 296.058594 L 335.105469 299.441406 C 335.175781 299.660156 335.105469 299.875 334.890625 299.910156 C 332.800781 300.308594 330.390625 300.488281 328.15625 300.488281 C 320.777344 300.488281 318.472656 298.21875 318.472656 290.765625 C 318.472656 283.351563 320.777344 281.117188 328.15625 281.117188 C 330.390625 281.117188 332.800781 281.335938 334.890625 281.695313 C 335.105469 281.765625 335.175781 281.945313 335.105469 282.164063 L 334.601563 285.546875 C 334.566406 285.726563 334.3125 285.796875 334.167969 285.761719 C 332.511719 285.332031 330.28125 285.113281 328.335938 285.113281 C 324.339844 285.113281 323.621094 285.65625 323.621094 290.800781 C 323.621094 296.09375 324.519531 296.527344 328.515625 296.527344 C 330.460938 296.527344 332.511719 296.273438 334.167969 295.84375 " id="svg_22"/>
<path style=" stroke:none;fill-rule:nonzero;fill:rgb(13.699341%,12.199402%,12.5%);fill-opacity:1;" d="M 340.019531 281.984375 C 340.019531 281.800781 340.164063 281.660156 340.378906 281.660156 L 344.265625 281.660156 C 344.480469 281.660156 344.664063 281.800781 344.664063 281.984375 L 344.664063 293.753906 L 353.050781 281.984375 C 353.195313 281.839844 353.410156 281.660156 353.628906 281.660156 L 358.164063 281.660156 C 358.378906 281.660156 358.523438 281.800781 358.523438 281.984375 L 358.523438 299.660156 C 358.523438 299.839844 358.378906 299.984375 358.164063 299.984375 L 354.273438 299.984375 C 354.058594 299.984375 353.878906 299.839844 353.878906 299.660156 L 353.878906 287.382813 L 345.382813 299.695313 C 345.273438 299.839844 345.09375 299.984375 344.878906 299.984375 L 340.378906 299.984375 C 340.164063 299.984375 340.019531 299.839844 340.019531 299.660156 L 340.019531 281.984375 " id="svg_23"/>
<path style=" stroke:none;fill-rule:nonzero;fill:rgb(13.699341%,12.199402%,12.5%);fill-opacity:1;" d="M 364.886719 281.984375 C 364.886719 281.800781 365.03125 281.660156 365.246094 281.660156 L 369.136719 281.660156 C 369.351563 281.660156 369.53125 281.800781 369.53125 281.984375 L 369.53125 293.753906 L 377.921875 281.984375 C 378.0625 281.839844 378.28125 281.660156 378.496094 281.660156 L 383.03125 281.660156 C 383.246094 281.660156 383.390625 281.800781 383.390625 281.984375 L 383.390625 299.660156 C 383.390625 299.839844 383.246094 299.984375 383.03125 299.984375 L 379.144531 299.984375 C 378.929688 299.984375 378.746094 299.839844 378.746094 299.660156 L 378.746094 287.382813 L 370.253906 299.695313 C 370.144531 299.839844 369.964844 299.984375 369.746094 299.984375 L 365.246094 299.984375 C 365.03125 299.984375 364.886719 299.839844 364.886719 299.660156 Z M 377.199219 274.855469 C 377.199219 274.675781 377.378906 274.53125 377.597656 274.53125 L 380.4375 274.53125 C 380.65625 274.53125 380.871094 274.675781 380.871094 274.855469 C 380.871094 278.527344 378.675781 279.75 374.105469 279.75 C 369.566406 279.75 367.371094 278.527344 367.371094 274.855469 C 367.371094 274.675781 367.589844 274.53125 367.804688 274.53125 L 370.609375 274.53125 C 370.828125 274.53125 371.042969 274.675781 371.042969 274.855469 C 371.042969 276.871094 371.332031 277.484375 374.140625 277.484375 C 376.910156 277.484375 377.199219 276.871094 377.199219 274.855469 " id="svg_24"/>
<path style=" stroke:none;fill-rule:nonzero;fill:rgb(13.699341%,12.199402%,12.5%);fill-opacity:1;" d="M 404.839844 295.84375 C 404.984375 295.808594 405.234375 295.878906 405.273438 296.058594 L 405.777344 299.441406 C 405.847656 299.660156 405.777344 299.875 405.558594 299.910156 C 403.472656 300.308594 401.058594 300.488281 398.828125 300.488281 C 391.449219 300.488281 389.144531 298.21875 389.144531 290.765625 C 389.144531 283.351563 391.449219 281.117188 398.828125 281.117188 C 401.058594 281.117188 403.472656 281.335938 405.558594 281.695313 C 405.777344 281.765625 405.847656 281.945313 405.777344 282.164063 L 405.273438 285.546875 C 405.234375 285.726563 404.984375 285.796875 404.839844 285.761719 C 403.183594 285.332031 400.953125 285.113281 399.007813 285.113281 C 395.011719 285.113281 394.292969 285.65625 394.292969 290.800781 C 394.292969 296.09375 395.191406 296.527344 399.1875 296.527344 C 401.132813 296.527344 403.183594 296.273438 404.839844 295.84375 " id="svg_25"/>
<path style=" stroke:none;fill-rule:nonzero;fill:rgb(13.699341%,12.199402%,12.5%);fill-opacity:1;" d="M 415.316406 299.660156 C 415.316406 299.839844 415.136719 299.984375 414.921875 299.984375 L 411.105469 299.984375 C 410.886719 299.984375 410.707031 299.839844 410.707031 299.660156 L 410.707031 281.984375 C 410.707031 281.800781 410.886719 281.660156 411.105469 281.660156 L 414.921875 281.660156 C 415.136719 281.660156 415.316406 281.800781 415.316406 281.984375 L 415.316406 290.191406 C 422.15625 287.742188 419.996094 281.082031 428.601563 281.082031 C 428.816406 281.082031 428.996094 281.226563 428.996094 281.371094 L 429.789063 284.609375 C 429.789063 284.753906 429.609375 284.933594 429.390625 284.933594 C 424.746094 285.042969 425.683594 288.605469 421.183594 290.371094 C 425.683594 292.171875 425.394531 296.453125 429.609375 296.527344 C 429.789063 296.527344 429.96875 296.707031 429.96875 296.886719 L 429.175781 300.164063 C 429.175781 300.34375 429.03125 300.449219 428.816406 300.449219 C 420.210938 300.449219 422.335938 293.464844 415.316406 291.019531 L 415.316406 299.660156 " id="svg_26"/>
<path style=" stroke:none;fill-rule:nonzero;fill:rgb(13.699341%,12.199402%,12.5%);fill-opacity:1;" d="M 434.839844 281.984375 C 434.839844 281.800781 434.984375 281.660156 435.199219 281.660156 L 439.085938 281.660156 C 439.304688 281.660156 439.484375 281.800781 439.484375 281.984375 L 439.484375 293.753906 L 447.871094 281.984375 C 448.015625 281.839844 448.230469 281.660156 448.445313 281.660156 L 452.984375 281.660156 C 453.199219 281.660156 453.34375 281.800781 453.34375 281.984375 L 453.34375 299.660156 C 453.34375 299.839844 453.199219 299.984375 452.984375 299.984375 L 449.09375 299.984375 C 448.878906 299.984375 448.699219 299.839844 448.699219 299.660156 L 448.699219 287.382813 L 440.203125 299.695313 C 440.09375 299.839844 439.914063 299.984375 439.699219 299.984375 L 435.199219 299.984375 C 434.984375 299.984375 434.839844 299.839844 434.839844 299.660156 L 434.839844 281.984375 " id="svg_27"/>
<path style=" stroke:none;fill-rule:nonzero;fill:rgb(13.699341%,12.199402%,12.5%);fill-opacity:1;" d="M 478.339844 291.34375 C 478.339844 291.628906 477.980469 291.8125 477.730469 291.8125 L 464.121094 291.8125 C 464.230469 296.417969 465.058594 296.777344 469.953125 296.777344 C 472.113281 296.777344 474.703125 296.492188 476.324219 296.058594 L 476.394531 296.058594 C 476.539063 296.058594 476.722656 296.128906 476.757813 296.273438 L 477.226563 299.40625 C 477.261719 299.480469 477.261719 299.515625 477.261719 299.585938 C 477.261719 300.234375 471.609375 300.488281 469.449219 300.488281 C 461.671875 300.488281 459.042969 298.21875 459.042969 290.765625 C 459.042969 283.421875 461.816406 281.117188 469.015625 281.117188 C 476.070313 281.117188 478.339844 283.132813 478.339844 291.34375 Z M 473.515625 288.535156 C 473.40625 285.1875 472.652344 284.648438 468.871094 284.648438 C 465.164063 284.648438 464.335938 285.1875 464.15625 288.535156 L 473.515625 288.535156 " id="svg_28"/>
<path style=" stroke:none;fill-rule:nonzero;fill:rgb(13.699341%,12.199402%,12.5%);fill-opacity:1;" d="M 257.449219 317.660156 L 261.304688 317.660156 C 261.519531 317.660156 261.699219 317.800781 261.699219 317.984375 L 261.699219 326.226563 C 268.539063 323.777344 265.046875 317.117188 273.648438 317.117188 C 273.867188 317.117188 274.046875 317.261719 274.046875 317.40625 L 274.839844 320.648438 C 274.839844 320.789063 274.65625 320.96875 274.441406 320.96875 C 269.800781 321.078125 271.8125 324.644531 267.3125 326.40625 C 271.8125 328.207031 270.445313 332.492188 274.65625 332.5625 C 274.839844 332.5625 275.019531 332.742188 275.019531 332.921875 L 274.226563 336.199219 C 274.226563 336.378906 274.082031 336.488281 273.867188 336.488281 C 265.261719 336.488281 268.71875 329.503906 261.699219 327.054688 L 261.699219 335.660156 C 261.699219 335.839844 261.519531 335.984375 261.304688 335.984375 L 257.449219 335.984375 C 257.234375 335.984375 257.089844 335.839844 257.089844 335.660156 L 257.089844 327.054688 C 250.070313 329.503906 253.527344 336.488281 244.921875 336.488281 C 244.707031 336.488281 244.527344 336.378906 244.527344 336.199219 L 243.769531 332.921875 C 243.769531 332.742188 243.949219 332.5625 244.128906 332.5625 C 248.34375 332.492188 246.976563 328.207031 251.476563 326.40625 C 246.976563 324.644531 248.988281 321.078125 244.3125 320.96875 C 244.128906 320.96875 243.949219 320.789063 243.949219 320.648438 L 244.742188 317.40625 C 244.742188 317.261719 244.886719 317.117188 245.101563 317.117188 C 253.707031 317.117188 250.25 323.777344 257.089844 326.226563 L 257.089844 317.984375 C 257.089844 317.800781 257.234375 317.660156 257.449219 317.660156 " id="svg_29"/>
<path style=" stroke:none;fill-rule:nonzero;fill:rgb(13.699341%,12.199402%,12.5%);fill-opacity:1;" d="M 298.5 327.34375 C 298.5 327.628906 298.140625 327.8125 297.890625 327.8125 L 284.28125 327.8125 C 284.390625 332.417969 285.21875 332.777344 290.113281 332.777344 C 292.273438 332.777344 294.863281 332.492188 296.484375 332.058594 L 296.558594 332.058594 C 296.699219 332.058594 296.882813 332.128906 296.917969 332.273438 L 297.386719 335.40625 C 297.421875 335.480469 297.421875 335.515625 297.421875 335.585938 C 297.421875 336.234375 291.769531 336.488281 289.609375 336.488281 C 281.832031 336.488281 279.203125 334.21875 279.203125 326.765625 C 279.203125 319.421875 281.976563 317.117188 289.175781 317.117188 C 296.230469 317.117188 298.5 319.132813 298.5 327.34375 Z M 293.675781 324.535156 C 293.566406 321.1875 292.8125 320.648438 289.03125 320.648438 C 285.324219 320.648438 284.496094 321.1875 284.316406 324.535156 L 293.675781 324.535156 " id="svg_30"/>
<path style=" stroke:none;fill-rule:nonzero;fill:rgb(13.699341%,12.199402%,12.5%);fill-opacity:1;" d="M 306.234375 317.984375 C 306.234375 317.800781 306.382813 317.660156 306.597656 317.660156 L 322.039063 317.660156 C 322.257813 317.660156 322.4375 317.800781 322.4375 317.984375 L 322.4375 335.660156 C 322.4375 335.839844 322.257813 335.984375 322.039063 335.984375 L 318.082031 335.984375 C 317.863281 335.984375 317.683594 335.839844 317.683594 335.660156 L 317.683594 321.367188 L 310.664063 321.367188 C 310.664063 325.578125 309.621094 331.160156 307.246094 336.125 C 307.171875 336.308594 306.992188 336.449219 306.777344 336.414063 L 302.636719 335.660156 C 302.421875 335.621094 302.238281 335.40625 302.3125 335.226563 C 305.445313 329.683594 306.199219 325.074219 306.234375 317.984375 " id="svg_31"/>
<path style=" stroke:none;fill-rule:nonzero;fill:rgb(13.699341%,12.199402%,12.5%);fill-opacity:1;" d="M 347.421875 327.34375 C 347.421875 327.628906 347.0625 327.8125 346.808594 327.8125 L 333.199219 327.8125 C 333.308594 332.417969 334.136719 332.777344 339.03125 332.777344 C 341.191406 332.777344 343.785156 332.492188 345.402344 332.058594 L 345.476563 332.058594 C 345.621094 332.058594 345.800781 332.128906 345.835938 332.273438 L 346.304688 335.40625 C 346.339844 335.480469 346.339844 335.515625 346.339844 335.585938 C 346.339844 336.234375 340.6875 336.488281 338.527344 336.488281 C 330.753906 336.488281 328.125 334.21875 328.125 326.765625 C 328.125 319.421875 330.894531 317.117188 338.097656 317.117188 C 345.152344 317.117188 347.421875 319.132813 347.421875 327.34375 Z M 342.597656 324.535156 C 342.488281 321.1875 341.730469 320.648438 337.953125 320.648438 C 334.242188 320.648438 333.414063 321.1875 333.234375 324.535156 L 342.597656 324.535156 " id="svg_32"/>
<path style=" stroke:none;fill-rule:nonzero;fill:rgb(13.699341%,12.199402%,12.5%);fill-opacity:1;" d="M 363.421875 330.476563 C 363.421875 328.171875 362.738281 327.992188 359.496094 327.992188 L 355.683594 327.992188 C 355.429688 327.992188 355.179688 327.847656 355.179688 327.628906 L 355.179688 325.109375 C 355.179688 324.894531 355.429688 324.714844 355.683594 324.714844 L 359.425781 324.714844 C 362.523438 324.714844 363.027344 324.535156 363.027344 322.664063 C 363.027344 321.1875 362.59375 320.71875 358.992188 320.71875 C 356.761719 320.71875 354.242188 320.898438 352.695313 321.257813 C 352.300781 321.332031 352.152344 321.113281 352.117188 320.753906 L 351.722656 318.054688 C 351.722656 317.910156 351.792969 317.660156 352.011719 317.621094 C 354.0625 317.296875 356.257813 317.117188 358.992188 317.117188 C 366.050781 317.117188 368.425781 318.703125 368.425781 322.050781 C 368.425781 324.175781 367.417969 325.652344 364.359375 326.226563 C 367.636719 326.730469 368.820313 328.386719 368.820313 330.835938 C 368.820313 334.832031 365.90625 336.488281 358.957031 336.488281 C 356.222656 336.488281 354.097656 336.308594 351.976563 335.984375 C 351.757813 335.945313 351.6875 335.695313 351.6875 335.550781 L 352.082031 332.777344 C 352.117188 332.417969 352.261719 332.203125 352.65625 332.273438 C 354.207031 332.632813 356.726563 332.851563 359.101563 332.851563 C 363.027344 332.851563 363.421875 332.203125 363.421875 330.476563 " id="svg_33"/>
<path style=" stroke:none;fill-rule:nonzero;fill:rgb(13.699341%,12.199402%,12.5%);fill-opacity:1;" d="M 392.824219 335.660156 C 392.824219 335.839844 392.679688 335.984375 392.464844 335.984375 L 388.503906 335.984375 C 388.285156 335.984375 388.105469 335.839844 388.105469 335.660156 L 388.105469 328.207031 L 379.035156 328.207031 L 379.035156 335.660156 C 379.035156 335.839844 378.855469 335.984375 378.640625 335.984375 L 374.679688 335.984375 C 374.464844 335.984375 374.320313 335.839844 374.320313 335.660156 L 374.320313 317.984375 C 374.320313 317.800781 374.464844 317.660156 374.679688 317.660156 L 378.640625 317.660156 C 378.855469 317.660156 379.035156 317.800781 379.035156 317.984375 L 379.035156 324.425781 L 388.105469 324.425781 L 388.105469 317.984375 C 388.105469 317.800781 388.285156 317.660156 388.503906 317.660156 L 392.464844 317.660156 C 392.679688 317.660156 392.824219 317.800781 392.824219 317.984375 L 392.824219 335.660156 " id="svg_34"/>
<path style=" stroke:none;fill-rule:nonzero;fill:rgb(13.699341%,12.199402%,12.5%);fill-opacity:1;" d="M 410.203125 324.03125 C 415.246094 324.03125 417.621094 326.046875 417.621094 329.933594 C 417.621094 333.894531 415.210938 335.984375 410.347656 335.984375 L 399.65625 335.984375 C 399.402344 335.984375 399.1875 335.839844 399.1875 335.621094 L 399.1875 317.984375 C 399.1875 317.800781 399.332031 317.660156 399.550781 317.660156 L 403.507813 317.660156 C 403.726563 317.660156 403.902344 317.800781 403.902344 317.984375 L 403.902344 324.03125 Z M 410.3125 332.382813 C 412.003906 332.382813 412.546875 331.988281 412.546875 330.042969 C 412.546875 328.0625 411.933594 327.488281 410.238281 327.488281 L 403.902344 327.488281 L 403.902344 332.382813 Z M 425.324219 335.660156 C 425.324219 335.839844 425.144531 335.984375 424.929688 335.984375 L 420.96875 335.984375 C 420.753906 335.984375 420.570313 335.839844 420.570313 335.660156 L 420.570313 317.984375 C 420.570313 317.800781 420.753906 317.660156 420.96875 317.660156 L 424.929688 317.660156 C 425.144531 317.660156 425.324219 317.800781 425.324219 317.984375 L 425.324219 335.660156 " id="svg_35"/>
<path style=" stroke:none;fill-rule:nonzero;fill:rgb(13.699341%,12.199402%,12.5%);fill-opacity:1;" d="M 450.308594 327.34375 C 450.308594 327.628906 449.949219 327.8125 449.695313 327.8125 L 436.089844 327.8125 C 436.195313 332.417969 437.023438 332.777344 441.921875 332.777344 C 444.078125 332.777344 446.671875 332.492188 448.292969 332.058594 L 448.363281 332.058594 C 448.507813 332.058594 448.6875 332.128906 448.726563 332.273438 L 449.191406 335.40625 C 449.230469 335.480469 449.230469 335.515625 449.230469 335.585938 C 449.230469 336.234375 443.574219 336.488281 441.414063 336.488281 C 433.640625 336.488281 431.011719 334.21875 431.011719 326.765625 C 431.011719 319.421875 433.785156 317.117188 440.984375 317.117188 C 448.039063 317.117188 450.308594 319.132813 450.308594 327.34375 Z M 445.484375 324.535156 C 445.375 321.1875 444.621094 320.648438 440.839844 320.648438 C 437.132813 320.648438 436.304688 321.1875 436.125 324.535156 L 445.484375 324.535156 " id="svg_36"/>
<path style=" stroke:none;fill-rule:nonzero;fill:rgb(13.699341%,12.199402%,12.5%);fill-opacity:1;" d="M 468.234375 332.203125 C 470.285156 327.953125 470.792969 323.632813 470.828125 317.984375 C 470.828125 317.800781 471.007813 317.660156 471.222656 317.660156 L 486.128906 317.660156 C 486.34375 317.660156 486.523438 317.800781 486.523438 317.984375 L 486.523438 332.203125 L 490.84375 332.203125 C 491.058594 332.203125 491.203125 332.347656 491.203125 332.527344 L 490.125 340.769531 C 490.125 340.949219 489.980469 341.09375 489.765625 341.09375 L 486.632813 341.09375 C 486.414063 341.09375 486.234375 340.949219 486.234375 340.769531 L 486.234375 335.984375 L 468.667969 335.984375 L 468.667969 340.769531 C 468.667969 340.949219 468.488281 341.09375 468.269531 341.09375 L 465.175781 341.09375 C 464.960938 341.09375 464.777344 340.949219 464.777344 340.769531 L 463.699219 332.527344 C 463.699219 332.347656 463.878906 332.203125 464.097656 332.203125 Z M 472.410156 332.203125 L 481.84375 332.203125 L 481.84375 321.257813 L 475.257813 321.257813 C 475.257813 324.824219 474.355469 328.820313 472.410156 332.203125 " id="svg_37"/>
<path style=" stroke:none;fill-rule:nonzero;fill:rgb(13.699341%,12.199402%,12.5%);fill-opacity:1;" d="M 494.890625 326.730469 C 494.890625 319.242188 497.699219 317.117188 505.292969 317.117188 C 512.960938 317.117188 515.734375 319.242188 515.734375 326.730469 C 515.734375 334.253906 513.035156 336.488281 505.292969 336.488281 C 497.625 336.488281 494.890625 334.253906 494.890625 326.730469 Z M 500.039063 326.800781 C 500.039063 332.167969 500.613281 332.632813 505.292969 332.632813 C 510.011719 332.632813 510.585938 332.167969 510.585938 326.800781 C 510.585938 321.546875 510.011719 320.96875 505.292969 320.96875 C 500.613281 320.96875 500.039063 321.546875 500.039063 326.800781 " id="svg_38"/>
<path style=" stroke:none;fill-rule:nonzero;fill:rgb(13.699341%,12.199402%,12.5%);fill-opacity:1;" d="M 521.4375 317.984375 C 521.4375 317.800781 521.582031 317.660156 521.796875 317.660156 L 525.757813 317.660156 C 525.972656 317.660156 526.152344 317.800781 526.152344 317.984375 L 526.152344 319.675781 C 527.304688 318.414063 530.652344 317.117188 533.210938 317.117188 C 539.328125 317.117188 541.632813 319.386719 541.632813 326.800781 C 541.632813 334.21875 539.328125 336.488281 533.210938 336.488281 C 530.652344 336.488281 527.304688 335.191406 526.152344 333.929688 L 526.152344 342.570313 C 526.152344 342.75 525.972656 342.894531 525.757813 342.894531 L 521.796875 342.894531 C 521.582031 342.894531 521.4375 342.75 521.4375 342.570313 Z M 526.152344 331.589844 C 527.628906 332.238281 529.933594 332.527344 531.589844 332.527344 C 535.90625 332.527344 536.484375 332.128906 536.484375 326.800781 C 536.484375 321.546875 535.90625 321.113281 531.589844 321.113281 C 529.933594 321.113281 527.628906 321.402344 526.152344 322.050781 L 526.152344 331.589844 " id="svg_39"/>
<path style=" stroke:none;fill-rule:nonzero;fill:rgb(13.699341%,12.199402%,12.5%);fill-opacity:1;" d="M 546.78125 326.730469 C 546.78125 319.242188 549.59375 317.117188 557.1875 317.117188 C 564.855469 317.117188 567.628906 319.242188 567.628906 326.730469 C 567.628906 334.253906 564.929688 336.488281 557.1875 336.488281 C 549.519531 336.488281 546.78125 334.253906 546.78125 326.730469 Z M 551.933594 326.800781 C 551.933594 332.167969 552.507813 332.632813 557.1875 332.632813 C 561.902344 332.632813 562.480469 332.167969 562.480469 326.800781 C 562.480469 321.546875 561.902344 320.96875 557.1875 320.96875 C 552.507813 320.96875 551.933594 321.546875 551.933594 326.800781 " id="svg_40"/>
<path style=" stroke:none;fill-rule:nonzero;fill:rgb(13.699341%,12.199402%,12.5%);fill-opacity:1;" d="M 587.886719 317.660156 C 588.175781 317.660156 588.355469 317.800781 588.355469 318.019531 L 588.355469 321.152344 C 588.355469 321.367188 588.175781 321.511719 587.886719 321.511719 L 578.097656 321.511719 L 578.097656 335.621094 C 578.097656 335.839844 577.878906 335.984375 577.628906 335.984375 L 573.847656 335.984375 C 573.558594 335.984375 573.378906 335.839844 573.378906 335.621094 L 573.378906 318.019531 C 573.378906 317.800781 573.558594 317.660156 573.847656 317.660156 L 587.886719 317.660156 " id="svg_41"/>
<g clip-path="url(#clip1)" clip-rule="nonzero" id="svg_42">
<path style=" stroke:none;fill-rule:nonzero;fill:rgb(13.699341%,12.199402%,12.5%);fill-opacity:1;" d="M 592.328125 317.984375 C 592.328125 317.800781 592.472656 317.660156 592.691406 317.660156 L 596.578125 317.660156 C 596.792969 317.660156 596.976563 317.800781 596.976563 317.984375 L 596.976563 329.753906 L 605.363281 317.984375 C 605.507813 317.839844 605.722656 317.660156 605.9375 317.660156 L 610.476563 317.660156 C 610.691406 317.660156 610.835938 317.800781 610.835938 317.984375 L 610.835938 335.660156 C 610.835938 335.839844 610.691406 335.984375 610.476563 335.984375 L 606.585938 335.984375 C 606.371094 335.984375 606.191406 335.839844 606.191406 335.660156 L 606.191406 323.382813 L 597.695313 335.695313 C 597.585938 335.839844 597.40625 335.984375 597.191406 335.984375 L 592.691406 335.984375 C 592.472656 335.984375 592.328125 335.839844 592.328125 335.660156 L 592.328125 317.984375 " id="svg_43"/>
</g>
<g clip-path="url(#clip2)" clip-rule="nonzero" id="svg_44">
<path style=" stroke:none;fill-rule:nonzero;fill:rgb(85.881042%,8.627319%,22.744751%);fill-opacity:1;" d="M 150.003906 287.980469 L 114 335.980469 L 84 335.980469 L 120 287.980469 Z M 173.941406 323.980469 C 168.929688 323.980469 166.183594 318.304688 169.140625 314.371094 L 189.003906 287.980469 L 159.003906 287.980469 L 145.457031 305.964844 C 142.203125 310.285156 142.21875 313.625 145.457031 317.960938 L 154.398438 329.882813 C 158.953125 335.953125 163.449219 335.980469 171.003906 335.980469 L 192.003906 335.980469 C 209.996094 335.976563 222.003906 323.972656 222.003906 305.980469 L 222.003906 293.980469 C 222.003906 275.988281 210 263.980469 192.003906 263.980469 L 165.003906 263.980469 C 163.753906 263.980469 162.003906 263.980469 160.503906 265.480469 C 159.003906 266.980469 159.003906 268.730469 159.003906 269.980469 L 159.003906 275.980469 L 192.003906 275.980469 C 195.753906 275.980469 198.003906 278.230469 198.003906 281.980469 L 198.003906 317.980469 C 198.003906 321.730469 195.753906 323.980469 192.003906 323.980469 Z M 60.058594 299.980469 C 65.074219 299.980469 67.820313 305.65625 64.863281 309.585938 L 45 335.980469 L 75 335.980469 L 88.546875 317.996094 C 91.796875 313.675781 91.785156 310.335938 88.546875 306 L 79.605469 294.078125 C 75.050781 288.007813 70.554688 287.980469 63 287.980469 L 6 287.980469 C 4.75 287.980469 3 287.980469 1.5 289.480469 C 0 290.980469 0 292.730469 0 293.980469 L 0 299.980469 L 12 299.980469 L 12 359.980469 L 36 359.980469 L 36 299.980469 L 60.058594 299.980469 " id="svg_45"/>
</g>
</g></g></svg>